<?xml version="1.0" encoding="utf-8"?> <!-- Generator: IcoMoon.io --> <!DOCTYPE svg PUBLIC "-//W3C//DTD SVG 1.1//EN" "http://www.w3.org/Graphics/SVG/1.1/DTD/svg11.dtd"> <svg xmlns:xlink="http://www.w3.org/1999/xlink" xmlns="http://www.w3.org/2000/svg" viewBox="0 0 512 512" height="512" width="512"><path d="M 256.00,98.165c-10.667-41.493-64.853-66.133-106.667-66.133c-82.453,0.00-149.333,64.00-149.333,149.333c0.00,160.00, 152.107,202.667, 234.667,298.667 c 0.736,1.067, 1.60,1.931, 2.56,2.88c 10.443,10.357, 27.307,10.357, 37.749,0.00c 0.971-0.949, 1.60-1.813, 2.357-2.88c 82.667-96.213, 234.667-138.016, 234.667-298.667 c0.00-85.333-66.88-149.333-149.333-149.333C 320.853,32.031, 266.667,56.671, 256.00,98.165z M 369.60,128.031c-10.027-1.813-17.60-10.56-17.60-21.013c0.00-11.733, 9.60-21.653, 21.333-21.653 c 16.96,0.00, 37.547,12.053, 54.827,29.12c 17.60,17.493, 30.507,40.853, 30.507,56.213c0.00,11.733-9.60,21.333-21.333,21.333c-10.453,0.00-19.20-7.573-21.024-17.60 C 410.976,152.991, 392.651,133.365, 369.60,128.031z"></path></svg>