<?xml version="1.0" encoding="utf-8"?>
<!-- Generator: Adobe Illustrator 15.0.0, SVG Export Plug-In . SVG Version: 6.00 Build 0)  -->
<!DOCTYPE svg PUBLIC "-//W3C//DTD SVG 1.1//EN" "http://www.w3.org/Graphics/SVG/1.1/DTD/svg11.dtd">
<svg version="1.1" id="Layer_1" xmlns="http://www.w3.org/2000/svg" xmlns:xlink="http://www.w3.org/1999/xlink" x="0px" y="0px"
	 width="512px" height="512px" viewBox="0 0 512 512" enable-background="new 0 0 512 512" xml:space="preserve">
<path fill="#333333" d="M256,98.165c-10.667-41.493-64.853-66.133-106.667-66.133C66.88,32.032,0,96.032,0,181.365
	c0,160,152.107,202.667,234.667,298.667c0.736,1.066,1.6,1.931,2.56,2.88c10.443,10.356,27.307,10.356,37.75,0
	c0.971-0.949,1.6-1.813,2.356-2.88C360,383.818,512,342.016,512,181.365c0-85.333-66.88-149.333-149.333-149.333
	C320.853,32.031,266.667,56.671,256,98.165z M369.6,128.031c-10.026-1.813-17.6-10.56-17.6-21.013
	c0-11.733,9.6-21.653,21.333-21.653c16.96,0,37.547,12.053,54.827,29.12c17.6,17.493,30.507,40.853,30.507,56.213
	c0,11.733-9.6,21.333-21.333,21.333c-10.453,0-19.2-7.573-21.024-17.6C410.976,152.991,392.651,133.365,369.6,128.031z"/>
</svg>
