<?xml version="1.0" encoding="utf-8"?>
<!-- Generator: Adobe Illustrator 15.0.0, SVG Export Plug-In  -->
<!DOCTYPE svg PUBLIC "-//W3C//DTD SVG 1.1//EN" "http://www.w3.org/Graphics/SVG/1.1/DTD/svg11.dtd" [
	<!ENTITY ns_flows "http://ns.adobe.com/Flows/1.0/">
]>
<svg version="1.1"
	 xmlns="http://www.w3.org/2000/svg" xmlns:xlink="http://www.w3.org/1999/xlink" xmlns:a="http://ns.adobe.com/AdobeSVGViewerExtensions/3.0/"
	 x="0px" y="0px" width="222px" height="57px" viewBox="0 0 222 57" enable-background="new 0 0 222 57" xml:space="preserve">
<defs>
</defs>
<path fill="#BBBBBB" d="M149.736,15.77c-12.188,0-19.793,9.021-19.793,19.986c0,11.042,7.451,19.986,19.871,19.986
	s19.949-8.943,19.949-19.986C169.764,24.791,161.923,15.77,149.736,15.77z M149.814,24.401c6.365,0,10.401,5.599,10.401,11.354
	c0,5.832-3.493,11.276-10.401,11.276c-6.91,0-10.401-5.444-10.401-11.276C139.413,30,142.982,24.401,149.814,24.401z"/>
<path fill="#BBBBBB" d="M0,1.462v54.435h9.47V36.3c0-5.755,3.881-10.499,9.469-10.499c5.047,0,8.694,2.955,8.694,9.954v20.142h9.471
	V35.678c0-11.276-4.813-18.663-15.681-18.663c-4.346,0-8.539,1.321-11.954,5.753V1.462H0z"/>
<path fill="#BBBBBB" d="M83.276,39.1c1.475-15.787-6.521-23.719-19.328-23.719c-12.42,0-20.337,8.397-20.337,20.063
	c0,12.287,7.84,20.453,21.036,20.453c5.823,0,12.42-2.021,16.457-6.222l-6.055-5.987c-2.173,2.256-6.753,3.578-10.245,3.578
	c-6.677,0-10.791-3.423-11.412-8.166H83.276z M53.547,31.245c1.396-4.978,5.589-7.466,10.711-7.466c5.434,0,9.316,2.488,9.937,7.466
	H53.547z"/>
<path fill="#FCEE1C" stroke="#5A5B5B" stroke-width="2.7724" stroke-miterlimit="10" d="M110.743,1.386h11.587V54.96h-11.587V1.386z
	"/>
<path fill="#FCEE1C" stroke="#5A5B5B" stroke-width="2.7724" stroke-miterlimit="10" d="M91.914,1.386H103.5V54.96H91.914V1.386z"/>
<path fill-rule="evenodd" clip-rule="evenodd" fill="#21BFB7" d="M219.646,25.942c-3.016-1.776-38.349-22.564-40.118-23.595
	c-2.205-1.286-4.438,0.349-4.438,2.548c0,1.696,0,44.831,0,47.286c0,2.423,2.469,3.597,4.347,2.533
	c2.57-1.453,38.038-22.343,40.209-23.648C221.593,29.895,221.625,27.11,219.646,25.942z M196.406,18.542
	c0.19-0.333,0.477-0.616,0.857-0.846c0.379-0.231,0.806-0.345,1.276-0.345c0.304,0,0.571,0.043,0.807,0.126
	c0.229,0.083,0.418,0.196,0.563,0.338c0.144,0.142,0.249,0.307,0.319,0.489c0.067,0.182,0.102,0.38,0.102,0.597
	c0,0.357-0.091,0.707-0.271,1.048c-0.181,0.343-0.449,0.628-0.809,0.858c-0.36,0.23-0.76,0.347-1.199,0.347
	c-0.912,0-1.509-0.302-1.789-0.907c-0.095-0.207-0.145-0.428-0.145-0.668C196.117,19.22,196.214,18.876,196.406,18.542z
	 M198.943,32.482c-0.219,0.303-0.561,0.605-1.024,0.905c-0.953,0.502-1.832,0.753-2.642,0.753c-0.751,0-1.292-0.216-1.623-0.644
	c-0.242-0.314-0.366-0.743-0.431-1.229c-0.047,0.038-0.097,0.08-0.132,0.113c-0.126,0.107-0.292,0.244-0.506,0.404
	c-0.211,0.164-0.396,0.296-0.553,0.396c-0.154,0.099-0.345,0.207-0.57,0.327c-0.224,0.121-0.437,0.213-0.641,0.277
	c-0.203,0.063-0.431,0.118-0.679,0.161c-0.248,0.042-0.503,0.065-0.768,0.065c-0.343,0-0.641-0.047-0.887-0.137
	c-0.249-0.092-0.439-0.222-0.576-0.388c-0.136-0.167-0.244-0.364-0.323-0.596c-0.08-0.23-0.122-0.482-0.126-0.756
	c-0.006-0.277-0.004-0.573,0.007-0.891c0.097-1.915,0.427-3.693,0.995-5.328c-1.383,2.345-2.544,4.771-3.48,7.286
	c-0.104,0.284-0.268,0.489-0.495,0.612c-0.23,0.126-0.535,0.187-0.918,0.187c-0.227,0-0.411-0.065-0.56-0.19
	c-0.147-0.128-0.249-0.293-0.305-0.496c-0.055-0.201-0.096-0.433-0.119-0.69c-0.024-0.259-0.024-0.519,0-0.782
	c0.03-0.469,0.095-0.977,0.187-1.521c0.092-0.543,0.18-0.996,0.263-1.352c0.085-0.359,0.215-0.862,0.391-1.508
	c0.175-0.65,0.297-1.112,0.359-1.39c-0.272,0.374-0.533,0.751-0.779,1.132c-0.25,0.382-0.486,0.768-0.715,1.158
	c-0.228,0.389-0.446,0.773-0.653,1.143c-0.208,0.375-0.416,0.774-0.624,1.194c-0.208,0.419-0.403,0.828-0.587,1.216
	c-0.185,0.388-0.385,0.82-0.601,1.287c-0.089,0.181-0.188,0.331-0.293,0.445c-0.108,0.118-0.24,0.204-0.396,0.265
	c-0.155,0.058-0.341,0.089-0.546,0.089c-0.305,0-0.553-0.063-0.744-0.187c-0.191-0.123-0.329-0.305-0.414-0.54
	c-0.084-0.239-0.137-0.49-0.162-0.753c-0.022-0.262-0.027-0.576-0.011-0.94c0.07-1.302,0.258-2.633,0.559-3.989
	c0.3-1.355,0.664-2.614,1.096-3.774c0.129-0.333,0.33-0.613,0.601-0.833c0.271-0.226,0.584-0.336,0.937-0.336
	c0.305,0,0.553,0.101,0.751,0.3c0.195,0.197,0.285,0.457,0.271,0.776c0,0.017,0,0.029,0,0.042c0,0.01-0.003,0.024-0.008,0.041
	c-0.004,0.016-0.004,0.031-0.004,0.047c0,0.017-0.005,0.029-0.007,0.042c-0.006,0.012-0.007,0.025-0.007,0.041
	c-0.135,0.478-0.339,1.179-0.61,2.105c-0.272,0.926-0.452,1.552-0.54,1.879l0.216,0.25c1.263-2.505,2.49-4.227,3.681-5.165
	c0.128-0.104,0.265-0.182,0.408-0.232c0.145-0.052,0.301-0.077,0.469-0.077c0.335,0,0.605,0.095,0.81,0.287
	c0.203,0.189,0.298,0.443,0.28,0.761c-0.024,0.43-0.315,1.822-0.875,4.175l0.203,0.25c1.104-2.292,2.239-4.011,3.407-5.165
	c0.104-0.104,0.227-0.182,0.367-0.232c0.14-0.052,0.284-0.077,0.437-0.077c0.367,0,0.667,0.093,0.895,0.279
	c0.228,0.186,0.328,0.443,0.306,0.769c-0.017,0.32-0.161,1.385-0.439,3.198c-0.274,1.812-0.425,2.952-0.449,3.423
	c-0.01,0.223-0.012,0.442-0.012,0.661c0,0.22,0.047,0.408,0.138,0.567c0.093,0.159,0.236,0.238,0.439,0.238
	c0.311,0,0.704-0.187,1.175-0.562c0.473-0.375,0.924-0.798,1.354-1.276c0.128-0.14,0.231-0.229,0.331-0.311
	c0.012-0.055,0.017-0.1,0.03-0.155c0.206-0.848,0.432-1.599,0.669-2.243c0.241-0.643,0.506-1.337,0.799-2.08
	c0.291-0.744,0.466-1.195,0.522-1.353c0.064-0.249,0.196-0.46,0.397-0.639c0.198-0.178,0.422-0.309,0.665-0.391
	c0.244-0.084,0.498-0.125,0.761-0.125c0.463,0.016,0.695,0.346,0.695,0.99c0,0.524-0.096,1.232-0.287,2.128
	c-0.191,0.895-0.386,1.778-0.581,2.648c-0.196,0.873-0.293,1.54-0.293,1.998c0,0.725,0.23,1.083,0.695,1.083
	c0.087,0,0.185-0.014,0.292-0.038c0.109-0.03,0.231-0.071,0.366-0.126c0.055-0.033,0.11-0.062,0.162-0.085
	c0.053-0.025,0.104-0.042,0.156-0.06c0.051-0.016,0.1-0.027,0.144-0.036c0.045-0.008,0.09-0.012,0.139-0.012
	c0.151,0,0.275,0.045,0.365,0.139c0.092,0.09,0.139,0.211,0.139,0.363C199.272,31.916,199.164,32.18,198.943,32.482z
	 M213.953,30.606c-0.118,0.385-0.235,0.634-0.357,0.745c-2.04,1.859-4.008,2.791-5.9,2.791c-0.232,0-0.464-0.068-0.697-0.196
	c-0.231-0.133-0.433-0.28-0.601-0.448c-0.168-0.167-0.352-0.396-0.552-0.682c-0.199-0.291-0.351-0.532-0.455-0.724
	c-0.104-0.192-0.239-0.442-0.409-0.752c-0.096,0.11-0.265,0.312-0.51,0.601c-0.244,0.291-0.464,0.544-0.658,0.758
	c-0.196,0.216-0.424,0.443-0.686,0.687c-0.26,0.241-0.524,0.428-0.79,0.561c-0.268,0.128-0.531,0.196-0.786,0.196
	c-0.425,0-0.79-0.088-1.097-0.263c-0.308-0.175-0.545-0.421-0.708-0.738c-0.164-0.318-0.28-0.661-0.346-1.025
	c-0.069-0.367-0.104-0.774-0.104-1.22l1.786-1.023c0.027,0.166,0.051,0.305,0.075,0.416c0.024,0.11,0.064,0.255,0.124,0.428
	c0.062,0.177,0.139,0.312,0.229,0.399c0.09,0.093,0.198,0.138,0.316,0.138c0.137,0,0.284-0.056,0.445-0.167
	c0.158-0.111,0.323-0.263,0.491-0.458s0.319-0.382,0.448-0.568c0.133-0.181,0.273-0.382,0.422-0.603
	c0.147-0.218,0.254-0.367,0.317-0.447c-0.438-1.135-0.85-2.492-1.234-4.065c-0.01-0.064-0.013-0.103-0.013-0.12
	c0.017-0.334,0.246-0.646,0.69-0.936c0.442-0.291,0.865-0.435,1.265-0.435c0.184,0,0.354,0.07,0.511,0.21
	c0.155,0.138,0.286,0.329,0.396,0.577c0.107,0.247,0.197,0.484,0.274,0.715c0.076,0.231,0.154,0.491,0.234,0.782
	c0.079,0.289,0.141,0.495,0.181,0.616c0.985-0.979,2.025-1.817,3.13-2.516c0.392-0.248,0.75-0.369,1.067-0.369
	c0.351,0,0.619,0.129,0.804,0.391c0.184,0.263,0.27,0.589,0.252,0.978c-0.007,0.114-0.025,0.222-0.047,0.328
	c-0.026,0.109-0.059,0.21-0.102,0.304c-0.045,0.097-0.094,0.184-0.151,0.264c-0.056,0.081-0.118,0.153-0.184,0.223
	c-0.068,0.066-0.145,0.125-0.225,0.171c-1.142,0.699-2.31,1.639-3.503,2.815c0.017,0.041,0.076,0.18,0.18,0.418
	c0.106,0.238,0.188,0.425,0.247,0.561c0.063,0.135,0.15,0.316,0.277,0.543c0.123,0.227,0.238,0.403,0.348,0.53
	c0.105,0.126,0.23,0.239,0.371,0.34c0.139,0.099,0.28,0.147,0.428,0.147c0.231,0,0.478-0.04,0.743-0.118
	c0.264-0.079,0.521-0.188,0.77-0.328c0.246-0.14,0.486-0.286,0.719-0.441c0.23-0.157,0.458-0.328,0.684-0.524
	c0.224-0.195,0.413-0.367,0.569-0.521c0.156-0.148,0.309-0.304,0.461-0.464c0.305-0.31,0.546-0.464,0.721-0.464
	c0.257,0,0.367,0.29,0.335,0.87C214.135,29.849,214.069,30.22,213.953,30.606z"/>
</svg>
