<?xml version="1.0" encoding="utf-8"?>
<!-- Generator: Adobe Illustrator 15.0.0, SVG Export Plug-In . SVG Version: 6.00 Build 0)  -->
<!DOCTYPE svg PUBLIC "-//W3C//DTD SVG 1.1//EN" "http://www.w3.org/Graphics/SVG/1.1/DTD/svg11.dtd">
<svg version="1.1" id="Layer_1" xmlns="http://www.w3.org/2000/svg" xmlns:xlink="http://www.w3.org/1999/xlink" x="0px" y="0px"
	 width="80px" height="80px" viewBox="0 0 80 80" enable-background="new 0 0 80 80" xml:space="preserve">
<path fill="#CCCCCC" d="M0,6.107h25.728v12.22H0V6.107z"/>
<path fill="#CCCCCC" d="M50.721,52.545h18.377v12.221H48.104L50.721,52.545z"/>
<path fill="#CCCCCC" d="M25.728,6.107l9.583,15.844l-5.198,8.641l-9.531-15.931L25.728,6.107z"/>
<path fill="#333333" d="M0,64.766h25.728V52.545H0V64.766z"/>
<path fill="#333333" d="M46.609,18.328h22.488V6.107H46.609V18.328z"/>
<path fill="#121212" d="M25.728,64.766l20.346-33.737l-5.198-8.641L20.583,56.211L25.728,64.766z"/>
<path fill="#121212" d="M35.574,48.484l20.293-33.822l-5.146-8.554L30.375,39.844L35.574,48.484z"/>
<path fill="#333333" d="M80.124,12.217L67.629,0v24.435L80.124,12.217"/>
<path fill="#CCCCCC" d="M80.124,58.654L67.629,46.438v24.436L80.124,58.654"/>
<path fill="#333333" d="M25.777,64.766l32.157-54.209L46.365,6.107L15.267,58.529L25.777,64.766z"/>
<path fill="#CCCCCC" d="M59.105,59.332L25.728,6.107l-8.856,7.607l31.229,51.052L59.105,59.332z"/>
</svg>
